<?xml version="1.0" standalone="no"?>
<!DOCTYPE svg PUBLIC "-//W3C//DTD SVG 20010904//EN"
 "http://www.w3.org/TR/2001/REC-SVG-20010904/DTD/svg10.dtd">
<svg version="1.0" xmlns="http://www.w3.org/2000/svg"
 width="608.000000pt" height="608.000000pt" viewBox="0 0 608.000000 608.000000"
 preserveAspectRatio="xMidYMid meet">
<metadata>
Created by potrace 1.14, written by Peter Selinger 2001-2017
</metadata>
<g transform="translate(0.000000,608.000000) scale(0.100000,-0.100000)"
fill="#000000" stroke="none">
<path d="M0 3040 l0 -3040 3040 0 3040 0 0 3040 0 3040 -3040 0 -3040 0 0
-3040z m4268 1940 l1052 -605 0 -622 c0 -430 -3 -623 -11 -623 -5 0 -102 28
-215 62 l-204 61 0 436 0 436 -781 450 c-429 247 -787 454 -795 459 -8 6 -52
137 -99 291 -47 154 -88 288 -91 298 -5 16 2 14 43 -10 27 -15 523 -300 1101
-633z m-1318 646 c0 -8 -177 -587 -181 -590 -2 -2 -132 -78 -289 -168 -157
-90 -511 -294 -787 -453 l-503 -290 0 -437 c0 -241 -3 -438 -7 -438 -5 0 -101
-29 -215 -64 l-208 -64 0 627 0 626 1088 627 c598 344 1090 627 1095 627 4 1
7 -1 7 -3z m640 -966 c11 -11 20 -28 20 -37 0 -9 -66 -273 -146 -587 -81 -314
-146 -588 -147 -608 0 -47 30 -97 73 -123 32 -18 57 -20 296 -25 192 -4 265
-8 276 -18 25 -21 41 -69 34 -104 -5 -25 -185 -239 -732 -868 -399 -459 -737
-839 -750 -844 -19 -8 -28 -6 -41 7 -15 15 -5 58 140 620 86 333 157 614 157
626 0 40 -37 95 -78 119 -38 21 -49 22 -292 22 l-252 0 -34 34 c-39 39 -45 85
-17 126 25 37 1393 1653 1411 1668 23 18 59 15 82 -8z m-2595 -1729 l190 -57
3 -440 2 -439 778 -448 c427 -246 783 -451 791 -456 13 -8 196 -590 188 -598
-2 -2 -495 279 -1095 624 l-1092 628 0 628 0 627 23 -5 c12 -3 108 -32 212
-64z m4325 -558 l0 -628 -548 -314 c-617 -355 -1335 -768 -1522 -877 -69 -40
-126 -71 -127 -70 -7 6 179 593 191 602 8 5 366 212 795 459 l781 450 2 440 3
439 205 63 c113 34 208 62 213 62 4 1 7 -281 7 -626z"/>
</g>
</svg>
